<svg height="511pt" viewBox="-73 0 511 511.99994" width="511pt" xmlns="http://www.w3.org/2000/svg"><path d="m37.59375 123.515625c-11.1875-64.773437 38.902344-123.515625 103.957031-123.515625 65.214844 0 114.96875 58.820312 104.003907 123.261719-1.390626 8.164062-9.136719 13.664062-17.304688 12.265625-8.167969-1.386719-13.660156-9.132813-12.269531-17.296875 7.882812-46.324219-27.9375-88.242188-74.429688-88.242188-46.78125 0-82.367187 42.25-74.394531 88.425781 1.410156 8.160157-4.066406 15.917969-12.230469 17.324219-8.125 1.410157-15.917969-4.03125-17.332031-12.222656zm0 0" fill="#7280f8"/><path d="m245.550781 123.261719c-1.386719 8.164062-9.136719 13.664062-17.296875 12.265625-8.171875-1.390625-13.660156-9.128906-12.269531-17.296875 7.828125-46.023438-27.472656-87.691407-73.523437-88.230469v-29.9882812c64.761718.5390622 114.011718 59.1093752 103.089843 123.2500002zm0 0" fill="#434af2"/><path d="m291.050781 511.832031h-122.144531c-20.648438 0-40.589844-8.636719-54.714844-23.691406l-101.273437-107.984375c-17.414063-18.289062-16.433594-47.351562 2.4375-64.402344 17.902343-16.175781 46.222656-14.933594 63.136719 2.773438l17.621093 18.445312v-231.007812c0-25.359375 20.960938-45.691406 46.351563-44.96875 24.191406.664062 43.867187 21.113281 43.867187 45.589844v91.820312c21.113281-7.324219 44.574219 2.019531 54.839844 22.15625 21.792969-10.773438 48.679687-2.21875 60 19.992188 29.765625-14.710938 64.878906 7.074218 64.878906 40.351562v155.949219c0 41.34375-33.644531 74.976562-75 74.976562zm0 0" fill="#eebb2c"/><path d="m301.171875 240.550781c-11.320313-22.203125-38.210937-30.761719-60-19.992187-10.269531-20.132813-33.730469-29.480469-54.839844-22.152344v-91.820312c0-24.472657-19.679687-44.925782-43.871093-45.585938v445.992188c16.96875 6.398437 15.449218 4.839843 148.589843 4.839843 41.351563 0 75-33.628906 75-74.976562v-155.949219c0-33.277344-35.117187-55.058594-64.878906-40.355469zm0 0" fill="#e79b34"/></svg>